<?xml version="1.0" standalone="no"?>
<!DOCTYPE svg PUBLIC "-//W3C//DTD SVG 20010904//EN"
 "http://www.w3.org/TR/2001/REC-SVG-20010904/DTD/svg10.dtd">
<svg version="1.0" xmlns="http://www.w3.org/2000/svg"
 width="3264.000000pt" height="3264.000000pt" viewBox="0 0 3264.000000 3264.000000"
 preserveAspectRatio="xMidYMid meet">

<g transform="translate(0.000000,3264.000000) scale(0.100000,-0.100000)"
fill="#000000" stroke="none">
<path d="M15720 31269 c-451 -19 -949 -61 -1190 -100 -69 -11 -174 -26 -235
-34 -150 -18 -341 -50 -515 -86 -80 -17 -188 -39 -240 -50 -254 -51 -786 -181
-935 -228 -33 -11 -103 -31 -155 -45 -107 -30 -448 -137 -525 -165 -27 -10
-80 -28 -116 -39 -59 -19 -151 -51 -444 -159 -225 -82 -795 -328 -1060 -458
-464 -226 -668 -328 -726 -361 -35 -20 -93 -53 -129 -72 -36 -19 -76 -43 -90
-52 -14 -9 -38 -24 -55 -32 -63 -31 -385 -218 -505 -293 -126 -79 -458 -303
-625 -421 -49 -35 -102 -71 -118 -79 -90 -50 -762 -571 -863 -670 -11 -11 -54
-49 -95 -85 -41 -35 -108 -96 -149 -135 -42 -38 -111 -101 -155 -140 -229
-203 -823 -793 -887 -881 -13 -17 -55 -67 -95 -110 -194 -214 -703 -827 -773
-930 -8 -12 -47 -64 -86 -116 -92 -122 -374 -524 -495 -708 -142 -215 -190
-292 -301 -480 -141 -240 -199 -341 -237 -413 -23 -43 -66 -120 -95 -170 -149
-260 -516 -1024 -628 -1307 -27 -69 -57 -143 -68 -165 -58 -122 -222 -554
-275 -725 -13 -41 -62 -189 -110 -328 -47 -140 -101 -308 -121 -375 -88 -304
-164 -567 -178 -622 -74 -295 -103 -415 -155 -645 -33 -146 -72 -330 -86 -410
-15 -80 -37 -203 -51 -275 -36 -200 -75 -464 -94 -640 -5 -49 -16 -151 -24
-225 -14 -123 -39 -430 -66 -800 -6 -80 -13 -383 -17 -675 -6 -549 5 -994 31
-1290 8 -88 17 -200 21 -250 8 -114 51 -490 70 -615 8 -52 20 -140 25 -195 6
-55 17 -131 25 -170 8 -38 19 -110 25 -160 10 -86 19 -137 76 -445 86 -469
185 -902 310 -1355 85 -305 313 -973 414 -1210 41 -98 159 -393 196 -492 13
-34 41 -100 64 -146 22 -46 40 -87 40 -91 0 -5 180 -369 231 -466 10 -19 52
-105 93 -190 63 -131 131 -261 270 -515 34 -61 72 -129 149 -260 38 -66 88
-151 110 -190 22 -38 61 -101 85 -140 57 -88 73 -115 158 -250 37 -60 96 -150
129 -200 197 -291 244 -358 298 -430 90 -119 119 -156 152 -196 16 -20 60 -74
97 -120 125 -156 222 -274 238 -289 9 -8 50 -55 91 -104 41 -49 101 -119 134
-156 33 -36 85 -94 115 -130 146 -170 635 -687 910 -959 242 -240 667 -628
825 -752 44 -34 118 -95 165 -134 72 -60 559 -430 626 -475 12 -8 136 -92 276
-186 215 -145 459 -302 748 -481 36 -22 112 -67 170 -100 58 -33 179 -102 270
-154 293 -169 406 -229 602 -321 106 -49 261 -122 343 -160 83 -39 200 -92
260 -118 61 -27 173 -76 250 -110 208 -91 450 -186 625 -245 223 -75 610 -200
715 -231 261 -76 702 -195 915 -248 80 -20 163 -41 185 -46 22 -6 85 -19 140
-31 55 -11 118 -24 139 -30 121 -32 806 -145 1036 -170 79 -9 150 -16 405 -39
469 -44 1231 -62 1675 -41 591 29 1284 95 1590 151 58 11 177 31 265 46 336
54 577 103 865 176 85 22 172 44 193 49 206 50 885 260 1127 350 47 17 100 35
119 41 37 11 99 35 361 140 196 79 361 146 465 190 39 17 210 100 380 186 171
85 373 187 450 225 77 39 153 79 168 90 15 10 58 36 95 57 176 98 284 160 354
203 43 26 80 47 84 47 15 0 392 239 669 424 320 214 452 308 695 493 36 27
110 83 165 124 421 313 1243 1067 1684 1544 245 265 558 636 730 865 31 41 66
86 78 100 82 94 448 598 633 870 41 60 94 138 118 172 23 35 68 106 98 158 31
52 66 111 79 130 12 19 35 57 51 84 16 27 46 77 66 110 20 34 54 93 76 131 21
39 74 133 117 210 160 286 392 741 510 1000 37 83 71 155 75 160 5 6 46 96 93
200 80 179 138 322 237 580 23 61 52 137 65 170 29 75 161 465 205 605 18 58
38 121 46 140 7 19 22 69 33 110 11 41 43 158 72 260 68 242 89 320 127 465
57 220 171 748 187 865 4 30 15 91 25 135 25 107 98 582 120 780 51 457 88
898 100 1205 5 107 7 494 5 860 -3 627 -5 688 -34 1066 -16 220 -34 429 -40
465 -5 35 -13 102 -16 149 -4 47 -16 144 -26 215 -11 72 -27 189 -35 260 -8
72 -19 146 -24 165 -5 19 -14 71 -20 115 -19 132 -102 580 -126 680 -8 33 -26
112 -39 175 -33 156 -74 324 -141 565 -7 28 -24 91 -37 141 -14 50 -29 106
-35 125 -15 45 -63 203 -96 309 -74 246 -177 551 -276 820 -18 47 -35 96 -40
110 -9 27 -84 223 -127 330 -44 111 -236 550 -312 715 -16 33 -46 98 -67 144
-33 71 -235 476 -329 661 -16 30 -50 92 -77 136 -26 45 -48 85 -48 89 0 4 -8
19 -19 33 -10 15 -51 86 -91 157 -40 72 -96 168 -124 215 -29 47 -79 128 -111
180 -58 94 -348 534 -422 640 -79 113 -365 496 -449 601 -32 41 -76 96 -96
123 -20 27 -75 94 -122 150 -46 56 -131 157 -189 226 -88 106 -187 219 -351
400 -182 202 -693 723 -827 844 -30 27 -90 83 -134 125 -174 164 -619 547
-810 696 -42 33 -114 89 -159 126 -196 157 -623 466 -784 567 -20 13 -104 68
-187 122 -238 158 -503 319 -750 458 -44 24 -98 55 -120 67 -103 59 -307 172
-375 208 -166 87 -593 297 -605 297 -3 0 -46 20 -97 44 -106 50 -303 138 -458
203 -58 24 -125 52 -150 63 -25 10 -92 35 -150 56 -58 20 -141 50 -185 66
-117 42 -550 188 -620 209 -33 10 -89 26 -125 37 -449 136 -788 223 -1170 298
-41 8 -104 21 -140 29 -36 8 -96 19 -135 25 -38 5 -122 19 -185 30 -155 27
-450 67 -585 80 -60 5 -164 17 -230 25 -114 14 -420 34 -865 55 -222 11 -805
11 -1070 -1z m764 -3384 c6 -3 52 -11 101 -20 249 -42 466 -147 855 -412 49
-34 327 -237 415 -305 381 -290 575 -436 685 -518 70 -52 161 -122 203 -155
41 -33 137 -107 212 -165 155 -118 307 -235 634 -490 124 -96 244 -188 267
-205 52 -37 193 -146 344 -266 114 -90 309 -241 374 -289 32 -24 124 -97 406
-320 73 -58 158 -125 190 -150 31 -25 97 -79 145 -120 109 -93 199 -166 683
-553 336 -268 590 -503 728 -672 38 -47 93 -129 139 -207 33 -57 105 -229 134
-323 32 -101 43 -151 67 -310 36 -237 -7 -578 -105 -823 -135 -341 -307 -545
-1207 -1427 -536 -525 -590 -579 -704 -703 -95 -103 -315 -307 -400 -372 -25
-19 -61 -48 -80 -66 -46 -41 -170 -153 -260 -234 -39 -35 -93 -79 -120 -97
-27 -18 -55 -41 -62 -51 -21 -29 -561 -493 -678 -582 -46 -35 -203 -168 -397
-335 -57 -49 -128 -110 -157 -135 -29 -25 -99 -85 -155 -135 -56 -49 -123
-107 -149 -129 -26 -21 -65 -54 -87 -75 -22 -20 -82 -72 -135 -116 -52 -44
-106 -90 -120 -102 -128 -111 -285 -244 -433 -368 -99 -83 -231 -194 -295
-249 -65 -54 -157 -131 -207 -172 -49 -40 -115 -94 -145 -119 -151 -126 -402
-269 -567 -325 -134 -44 -301 -64 -433 -50 -117 12 -286 58 -370 100 -176 89
-414 270 -906 690 -88 75 -193 163 -234 195 -171 136 -401 325 -494 405 -54
47 -134 115 -176 151 -43 36 -89 75 -102 86 -12 12 -45 40 -73 63 -27 23 -84
70 -125 105 -41 35 -140 119 -220 186 -80 67 -215 184 -300 260 -85 76 -182
154 -215 174 -85 51 -188 132 -349 274 -78 68 -158 137 -180 152 -41 31 -331
286 -431 380 -33 31 -80 74 -105 95 -25 21 -113 102 -195 179 -83 77 -177 165
-210 194 -33 30 -105 98 -161 151 -55 53 -140 132 -190 177 -49 44 -152 140
-230 214 -77 74 -183 172 -234 219 -206 187 -593 555 -758 720 -269 270 -378
413 -454 595 -159 383 -160 875 -2 1285 52 135 75 179 158 310 177 279 331
423 1015 950 46 36 113 89 150 118 171 136 184 146 352 277 56 44 145 114 198
156 53 42 130 100 171 130 41 29 124 92 185 139 60 47 137 105 171 130 34 25
167 124 295 221 129 96 283 211 343 255 109 79 362 268 511 381 44 33 154 115
245 182 266 196 745 556 964 725 84 65 511 386 656 492 332 245 461 331 673
448 157 86 422 167 617 190 40 5 306 -3 324 -9z m5396 -8735 c150 -153 273
-288 288 -316 7 -13 17 -24 22 -24 11 0 135 -128 201 -208 24 -29 67 -79 94
-111 28 -32 68 -82 90 -111 22 -29 54 -69 71 -89 40 -46 99 -139 109 -171 4
-14 25 -44 46 -67 22 -24 39 -48 39 -56 0 -7 8 -24 18 -37 22 -31 62 -136 67
-175 2 -16 11 -43 19 -60 9 -16 16 -38 16 -48 0 -9 4 -25 9 -35 43 -81 64
-562 29 -667 -9 -27 -19 -68 -23 -90 -4 -22 -13 -53 -20 -70 -8 -16 -24 -57
-36 -90 -46 -130 -119 -260 -189 -336 -16 -19 -30 -37 -30 -41 0 -4 -18 -27
-40 -49 -22 -23 -40 -48 -40 -55 0 -8 -4 -14 -9 -14 -5 0 -55 -45 -112 -101
-57 -55 -116 -108 -131 -117 -16 -9 -28 -21 -28 -27 0 -6 -15 -18 -33 -28 -18
-10 -46 -30 -63 -44 -16 -14 -53 -43 -81 -65 -29 -22 -53 -44 -53 -48 0 -5
-25 -25 -55 -45 -31 -20 -61 -45 -68 -56 -6 -10 -47 -45 -90 -76 -44 -32 -101
-77 -128 -100 -27 -24 -53 -43 -57 -43 -4 0 -36 -27 -72 -60 -36 -33 -68 -60
-72 -60 -3 0 -44 -31 -90 -70 -45 -38 -107 -89 -136 -112 -215 -173 -253 -202
-311 -241 -31 -21 -60 -44 -66 -50 -5 -7 -31 -27 -57 -45 -25 -18 -53 -38 -60
-46 -8 -7 -28 -21 -45 -29 -17 -9 -33 -23 -36 -31 -3 -8 -40 -39 -81 -70 -41
-30 -92 -71 -113 -90 -73 -67 -129 -113 -226 -186 -54 -41 -115 -88 -136 -105
-21 -16 -71 -55 -112 -86 -41 -31 -81 -64 -89 -74 -7 -9 -34 -31 -59 -47 -60
-41 -274 -203 -345 -261 -46 -39 -95 -77 -173 -137 -32 -24 -76 -61 -98 -81
-22 -20 -58 -49 -81 -65 -91 -65 -221 -162 -284 -214 -37 -30 -91 -73 -120
-95 -29 -22 -89 -70 -134 -106 -44 -36 -97 -77 -118 -90 -20 -13 -69 -51 -110
-84 -40 -34 -98 -80 -128 -102 -30 -23 -87 -68 -127 -100 -96 -78 -269 -215
-371 -294 -46 -35 -132 -101 -190 -147 -182 -142 -204 -158 -394 -296 -167
-122 -444 -269 -590 -314 -35 -11 -108 -23 -163 -26 -55 -4 -125 -9 -155 -12
-95 -8 -325 22 -420 55 -166 57 -275 115 -472 250 -98 68 -125 88 -254 186
-43 33 -88 67 -100 75 -28 20 -156 120 -224 175 -30 25 -122 96 -205 159 -82
62 -232 178 -331 257 -100 79 -240 188 -310 241 -71 54 -196 150 -279 213 -82
63 -238 181 -345 262 -107 81 -229 174 -270 208 -41 33 -91 71 -110 85 -19 13
-111 85 -205 160 -93 75 -222 175 -285 223 -63 48 -149 113 -190 145 -41 32
-196 150 -345 262 -148 112 -351 268 -450 346 -99 79 -198 157 -220 173 -164
123 -486 375 -644 505 -80 66 -180 145 -222 176 -42 32 -121 93 -174 136 -53
43 -123 99 -155 124 -196 153 -431 377 -494 472 -49 73 -131 279 -151 377 -55
267 -56 448 -6 689 24 115 38 159 85 253 113 231 183 327 431 594 98 105 211
229 252 277 41 48 78 88 81 90 4 2 66 66 139 143 216 230 290 305 300 305 27
0 51 -35 187 -263 10 -18 47 -79 81 -137 34 -58 79 -139 100 -180 20 -41 73
-139 116 -217 44 -78 79 -153 79 -167 0 -15 -8 -38 -17 -52 -9 -14 -34 -69
-55 -121 -21 -52 -45 -109 -53 -127 -42 -91 -77 -190 -92 -261 -16 -78 -16
-82 5 -151 31 -101 106 -197 305 -389 165 -159 345 -323 402 -366 17 -13 59
-48 95 -79 72 -63 254 -211 306 -250 18 -14 157 -119 309 -235 153 -115 316
-239 365 -275 48 -36 130 -100 184 -142 135 -109 275 -223 361 -293 86 -70
180 -145 578 -463 161 -128 363 -290 450 -360 151 -121 203 -162 423 -332 114
-89 142 -110 220 -170 59 -45 167 -130 534 -421 107 -85 212 -168 233 -184
111 -88 171 -129 262 -182 92 -53 106 -58 170 -61 66 -3 75 -1 160 42 80 41
165 99 282 191 21 17 76 60 123 97 176 139 245 195 324 263 80 70 161 134 233
188 37 26 259 200 373 291 30 24 89 67 130 97 41 29 98 72 125 94 28 23 79 64
115 92 36 27 76 59 90 71 45 39 205 165 320 252 61 47 130 100 153 118 22 18
53 40 69 48 15 8 28 19 28 24 0 5 26 27 58 49 31 23 92 69 134 103 96 78 233
188 312 250 131 103 156 123 316 253 91 74 176 144 190 155 14 11 39 32 55 46
17 14 53 43 80 64 28 20 77 61 110 89 33 28 88 75 123 104 35 28 86 73 115
100 28 26 56 47 61 47 5 0 30 19 56 43 47 42 109 93 210 170 30 23 57 44 60
47 3 3 30 25 60 50 30 25 64 53 75 64 11 10 36 30 55 45 101 76 217 181 363
329 76 77 96 103 113 152 11 33 27 66 34 75 9 11 15 55 18 124 5 114 -3 146
-63 264 -14 26 -25 56 -25 67 0 11 -11 27 -24 36 -14 8 -30 31 -36 49 -6 19
-15 35 -19 37 -4 2 -26 30 -48 63 -22 33 -50 69 -62 79 -11 11 -21 27 -21 36
0 10 -8 28 -19 41 -10 13 -20 31 -23 39 -5 16 40 109 87 179 17 24 44 65 60
91 73 118 170 258 200 290 31 33 96 133 136 209 10 19 27 44 37 55 10 12 27
40 37 64 22 51 41 65 70 50 11 -6 67 -59 125 -118z m-14505 -8722 c110 -56
206 -154 354 -363 113 -158 527 -711 656 -875 87 -111 217 -279 362 -470 56
-74 146 -191 198 -260 53 -69 133 -177 178 -240 97 -138 202 -267 228 -281 32
-17 58 -2 65 37 3 19 4 564 2 1210 -5 1069 -4 1177 11 1195 14 18 35 21 211
29 270 13 474 12 503 -1 14 -6 30 -22 36 -36 15 -32 16 -3715 1 -3743 -17 -31
-68 -40 -264 -46 -258 -8 -489 7 -542 34 -47 25 -93 82 -249 307 -65 94 -153
214 -194 268 -42 55 -85 111 -96 126 -11 15 -74 97 -141 181 -66 85 -136 178
-154 205 -19 28 -61 86 -94 129 -103 134 -197 265 -361 499 -16 24 -55 76 -85
117 -107 143 -147 198 -270 375 -104 148 -153 185 -181 134 -8 -15 -13 -345
-17 -1170 -8 -1296 2 -1173 -93 -1188 -76 -13 -610 -14 -642 -2 -59 23 -55
-31 -62 1036 -3 539 -2 1342 3 1785 8 800 8 805 31 862 17 44 33 65 70 92 127
94 402 121 536 54z m5395 -66 c130 -64 197 -156 305 -417 20 -49 47 -112 60
-140 13 -27 47 -102 75 -165 29 -63 109 -227 178 -365 181 -359 242 -484 302
-620 29 -66 88 -194 132 -285 146 -300 225 -464 253 -525 15 -33 64 -134 107
-225 67 -138 126 -264 233 -495 127 -272 205 -453 205 -471 0 -8 -17 -22 -37
-31 -32 -14 -81 -17 -313 -17 -320 -1 -342 3 -389 67 -81 109 -70 88 -277 514
-61 126 -77 135 -238 139 -66 2 -351 5 -632 7 -365 3 -516 8 -532 16 -30 16
-28 50 6 94 15 20 55 73 90 119 184 244 198 254 358 266 60 5 212 10 338 11
149 1 234 6 243 13 18 14 16 47 -3 83 -35 64 -245 486 -299 600 -56 118 -73
156 -190 420 -64 145 -86 181 -116 190 -37 12 -66 -21 -127 -147 -111 -225
-276 -593 -357 -793 -98 -240 -103 -252 -253 -550 -157 -312 -268 -535 -382
-769 -108 -219 -148 -277 -207 -297 -45 -15 -643 -4 -685 13 -53 20 -43 49
164 478 93 192 100 206 153 330 20 47 48 108 61 137 13 28 24 54 24 57 0 3 20
47 44 98 153 321 246 519 246 524 0 3 29 62 63 132 82 164 268 559 345 732 33
74 83 185 112 245 28 61 81 173 117 250 130 279 282 581 322 642 42 62 112
122 167 143 130 50 221 48 334 -8z m7794 33 c38 -8 89 -24 113 -36 51 -25 167
-136 178 -170 4 -13 15 -35 25 -49 10 -14 21 -36 25 -50 4 -14 18 -47 31 -75
13 -27 48 -106 78 -175 30 -69 74 -168 99 -220 25 -52 60 -129 80 -170 19 -41
71 -149 114 -240 122 -254 303 -643 303 -653 0 -3 36 -79 79 -169 101 -208
339 -738 471 -1048 55 -131 145 -322 240 -514 29 -60 39 -71 60 -71 22 0 32
15 85 120 68 134 131 268 245 520 151 334 776 1624 869 1795 57 105 179 359
308 644 197 432 273 526 457 561 125 24 254 -2 344 -70 96 -74 136 -145 327
-595 80 -188 183 -416 277 -610 44 -91 89 -183 99 -205 99 -217 149 -326 149
-330 0 -2 44 -96 99 -207 54 -112 102 -214 106 -228 4 -14 16 -41 26 -60 47
-90 348 -753 456 -1005 14 -33 47 -105 73 -160 123 -262 124 -266 113 -283
-24 -39 -76 -46 -358 -46 -270 -1 -270 -1 -319 24 -42 22 -56 37 -96 108 -26
45 -71 135 -99 199 -29 65 -57 126 -62 136 -5 9 -21 47 -35 85 -31 84 -66 137
-101 155 -45 23 -109 27 -453 29 -401 2 -840 13 -868 22 -34 11 -37 43 -7 88
31 47 118 165 189 255 57 73 122 118 186 128 25 5 182 11 350 14 l305 6 3 31
c2 21 -22 82 -86 215 -218 451 -271 566 -391 862 -46 114 -98 204 -125 219
-40 22 -62 -4 -142 -169 -109 -226 -344 -742 -344 -756 0 -15 -184 -403 -268
-567 -113 -220 -322 -639 -322 -646 0 -22 -189 -375 -218 -407 -36 -40 -42
-41 -577 -39 -690 3 -848 13 -900 54 -26 21 -76 118 -189 368 -90 202 -135
281 -171 301 -27 15 -89 18 -600 23 -648 8 -711 11 -731 42 -13 19 -6 31 83
150 53 71 133 166 178 210 105 105 102 104 468 104 286 0 307 2 307 37 0 19
-68 169 -182 403 -55 113 -118 248 -140 300 -21 52 -43 104 -48 115 -5 11 -27
65 -48 120 -58 145 -140 316 -164 342 -24 26 -54 29 -81 9 -21 -16 -187 -341
-282 -551 -246 -547 -259 -573 -525 -1110 -114 -231 -236 -481 -271 -555 -34
-74 -86 -175 -114 -225 -77 -134 -56 -128 -465 -132 -371 -4 -383 -3 -388 53
-2 22 18 73 70 180 40 82 93 192 117 244 51 108 190 396 340 705 57 116 122
251 146 300 76 161 233 480 475 970 131 264 284 581 341 705 119 261 215 443
271 517 93 122 234 166 412 128z m-5430 -24 c30 -5 56 -16 66 -28 9 -11 42
-83 74 -159 118 -279 324 -737 394 -874 95 -183 116 -226 180 -360 38 -80 100
-208 137 -285 72 -150 143 -305 232 -505 110 -248 265 -548 293 -565 35 -21
94 67 190 285 23 52 69 154 102 225 33 72 66 146 73 165 7 19 49 109 93 200
70 145 183 385 230 490 9 19 76 161 150 315 74 154 156 330 184 390 27 61 76
166 108 235 32 69 66 145 76 170 32 79 133 254 164 283 35 31 19 30 355 28
266 -2 405 -9 423 -23 30 -25 8 -92 -130 -378 -49 -102 -107 -221 -128 -265
-48 -100 -140 -303 -140 -309 0 -3 -40 -88 -90 -190 -49 -103 -90 -189 -90
-191 0 -3 -35 -78 -79 -168 -43 -89 -92 -191 -109 -227 -47 -103 -100 -215
-163 -348 -33 -67 -59 -124 -59 -126 0 -2 -60 -126 -134 -277 -73 -151 -172
-353 -218 -449 -225 -461 -283 -576 -338 -657 -71 -106 -94 -132 -150 -169
l-44 -29 -280 1 c-297 1 -346 7 -391 47 -15 13 -72 124 -144 282 -65 143 -132
290 -149 327 -18 36 -70 153 -118 260 -116 260 -102 229 -247 533 -142 298
-235 500 -352 765 -43 96 -99 220 -125 275 -136 284 -178 373 -240 510 -38 83
-80 174 -95 204 -48 97 -177 385 -202 451 -32 82 -40 139 -22 152 16 11 637 1
713 -11z"/>
<path d="M16160 26176 c-36 -13 -90 -39 -120 -57 -139 -86 -522 -362 -774
-559 -61 -47 -199 -152 -307 -235 -108 -82 -259 -198 -335 -256 -195 -148
-238 -181 -414 -312 -85 -64 -231 -175 -325 -247 -93 -72 -249 -190 -345 -262
-809 -607 -1085 -816 -1627 -1228 -388 -296 -546 -428 -601 -503 -62 -84 -93
-183 -99 -312 -8 -154 14 -214 143 -395 55 -78 396 -406 869 -835 66 -60 125
-114 130 -121 23 -27 488 -455 633 -581 86 -76 184 -163 217 -193 33 -30 96
-86 140 -125 44 -38 100 -89 125 -111 43 -40 276 -238 525 -447 66 -56 172
-147 235 -202 266 -234 451 -387 575 -477 28 -20 73 -60 101 -90 27 -29 88
-82 134 -118 133 -102 328 -266 415 -349 44 -42 116 -105 159 -141 43 -36 129
-108 190 -160 196 -169 330 -260 406 -275 120 -25 205 2 353 113 103 78 122
93 338 281 85 73 179 155 209 182 30 26 69 58 85 70 17 13 90 75 164 139 73
63 146 124 160 135 32 23 158 132 181 156 14 14 133 119 184 161 31 26 261
221 337 286 37 31 113 93 169 137 56 44 171 139 254 210 84 72 206 175 271
230 66 55 149 127 185 160 107 99 333 299 455 403 29 24 214 197 320 297 99
95 311 282 338 300 15 9 42 39 60 65 17 26 140 146 272 267 376 344 542 530
643 722 89 169 115 299 84 419 -45 165 -154 283 -512 552 -47 35 -90 69 -96
75 -6 5 -40 31 -75 57 -35 26 -149 113 -254 193 -196 150 -707 535 -783 589
-24 17 -71 52 -105 78 -34 26 -89 67 -122 92 -33 24 -172 130 -310 235 -137
106 -371 284 -520 396 -148 113 -299 228 -335 256 -36 28 -126 96 -200 151
-74 55 -151 113 -171 129 -20 15 -115 86 -210 158 -96 71 -196 147 -224 168
-129 101 -274 210 -430 323 -93 67 -228 166 -300 220 -181 135 -218 159 -286
186 -71 29 -95 29 -179 0z m415 -2321 c168 -31 376 -128 572 -269 80 -57 637
-501 704 -560 25 -23 69 -59 99 -81 29 -22 83 -65 121 -95 120 -97 216 -173
593 -468 54 -42 118 -93 141 -112 23 -19 66 -53 95 -75 28 -22 96 -76 149
-120 53 -44 162 -133 241 -198 80 -65 156 -128 170 -141 14 -12 41 -33 60 -46
79 -54 220 -190 220 -212 0 -11 -55 -83 -122 -160 -68 -77 -138 -160 -155
-184 -48 -64 -539 -554 -606 -605 -32 -24 -79 -59 -104 -78 -75 -57 -77 -56
-303 116 -144 111 -204 159 -335 268 -66 55 -138 114 -160 130 -55 40 -177
137 -193 152 -7 7 -57 48 -110 90 -53 42 -120 97 -148 122 -28 26 -95 80 -149
121 -54 41 -129 100 -166 130 -103 85 -186 151 -243 195 -428 330 -528 399
-596 410 -80 13 -128 -14 -436 -250 -64 -49 -129 -99 -143 -110 -14 -10 -69
-53 -121 -94 -52 -42 -133 -105 -180 -140 -47 -36 -137 -108 -201 -161 -63
-52 -146 -120 -184 -150 -38 -30 -85 -69 -104 -86 -20 -17 -88 -72 -151 -123
-114 -90 -156 -124 -338 -278 -90 -75 -182 -150 -287 -233 -27 -22 -88 -70
-135 -108 -129 -103 -147 -114 -172 -106 -38 12 -127 86 -263 221 -118 116
-430 446 -565 598 -29 33 -77 85 -106 115 -96 101 -142 161 -137 178 8 31 38
59 162 148 223 161 246 178 421 319 96 77 210 166 252 197 43 32 167 129 276
216 108 87 244 193 302 236 58 44 123 95 146 115 22 20 84 70 138 111 54 41
124 95 156 120 32 25 95 73 141 107 46 35 116 89 155 120 39 32 105 85 148
118 43 33 140 111 215 172 161 134 388 289 486 333 78 35 209 76 288 89 89 15
374 12 462 -4z"/>
<path d="M5049 27173 c-13 -16 -12 -17 4 -4 9 7 17 15 17 17 0 8 -8 3 -21 -13z"/>
<path d="M4910 27018 c-12 -22 -12 -22 6 -6 10 10 15 20 12 24 -4 3 -12 -5
-18 -18z"/>
<path d="M4818 26918 c-294 -330 -737 -890 -1019 -1291 -338 -481 -719 -1096
-1002 -1617 -348 -642 -756 -1551 -932 -2074 -13 -39 -36 -102 -50 -141 -54
-144 -136 -397 -131 -403 3 -2 8 1 10 9 2 8 25 73 50 144 25 72 65 189 89 260
25 72 59 164 77 205 17 41 38 93 45 115 8 22 30 78 50 125 20 47 42 101 50
120 36 98 282 658 381 867 145 309 447 893 579 1118 28 50 74 128 100 175 64
113 124 212 210 345 39 61 84 132 100 158 94 153 371 556 530 772 45 61 110
150 146 198 81 113 271 360 312 409 18 20 53 63 79 95 96 118 215 261 296 353
77 87 109 130 99 130 -3 0 -34 -33 -69 -72z"/>
<path d="M1650 21315 c-6 -16 -9 -36 -7 -44 2 -9 9 2 15 23 13 47 7 62 -8 21z"/>
<path d="M31252 18147 c-30 -31 -45 -66 -22 -52 6 3 10 -1 10 -9 0 -8 -5 -18
-10 -21 -6 -4 -8 -10 -5 -15 3 -5 0 -12 -6 -16 -7 -4 -9 -3 -5 4 3 6 2 13 -4
17 -5 3 -10 -1 -10 -10 0 -9 -4 -13 -10 -10 -5 3 -10 -1 -10 -10 0 -9 -4 -14
-9 -10 -5 3 -11 -3 -13 -12 -3 -15 -5 -14 -10 4 -3 13 -2 21 4 20 6 -1 12 6
13 17 3 15 -2 13 -25 -9 -16 -16 -27 -32 -24 -37 3 -4 9 -6 13 -4 4 3 8 -1 8
-9 0 -8 -2 -13 -5 -10 -6 6 -32 -21 -32 -35 0 -6 -4 -8 -10 -5 -5 3 -10 -2
-10 -11 0 -17 -14 -11 -16 7 -1 5 -2 12 -3 16 0 3 -10 -2 -21 -12 -20 -18 -28
-47 -11 -42 5 1 9 -2 9 -8 0 -5 -4 -9 -9 -7 -5 1 -9 -10 -9 -24 0 -14 4 -23 8
-20 5 3 9 -1 9 -9 0 -8 -5 -13 -11 -12 -6 1 -10 -4 -8 -10 1 -7 -3 -12 -10
-10 -7 1 -12 -10 -11 -30 0 -18 -4 -30 -9 -27 -4 3 -6 9 -3 14 3 5 1 12 -5 15
-7 4 -7 11 -2 18 10 13 -9 58 -24 58 -5 0 -8 7 -6 15 2 9 -2 21 -8 29 -14 17
-45 13 -45 -6 -1 -8 -7 -13 -14 -11 -7 1 -10 -2 -7 -7 7 -11 -18 -33 -27 -24
-4 3 -7 -6 -7 -22 0 -16 3 -25 7 -22 3 4 12 -5 19 -19 15 -29 13 -97 -5 -117
-6 -8 -7 -18 -3 -22 4 -5 1 -5 -5 -1 -9 5 -13 0 -13 -13 0 -12 -4 -21 -9 -21
-5 0 -7 10 -3 22 3 12 1 19 -5 15 -5 -3 -10 10 -10 31 -1 20 -2 42 -3 47 -6
25 1 86 8 81 5 -3 9 1 9 9 0 7 -8 12 -19 10 -11 -2 -18 2 -18 11 0 8 -4 12
-10 9 -5 -3 -10 1 -10 10 0 9 -4 13 -10 10 -6 -4 -10 5 -10 21 0 26 -1 26 -18
10 -20 -18 -23 -71 -4 -71 25 0 33 -26 35 -111 3 -93 10 -119 30 -107 7 4 6 0
-2 -10 -16 -20 -25 -23 -15 -4 4 6 3 8 -1 4 -18 -16 -13 -36 7 -32 15 3 17 1
9 -9 -7 -9 -7 -16 1 -24 7 -7 9 -13 5 -13 -4 -1 -10 -2 -14 -3 -5 -1 -14 -5
-20 -9 -9 -6 -13 -1 -13 18 0 15 -4 24 -10 20 -9 -6 -13 7 -13 47 0 10 -3 15
-7 13 -7 -4 -19 58 -23 122 -1 17 -6 35 -11 40 -5 4 -6 -35 -2 -93 4 -56 7
-133 7 -173 0 -39 6 -86 14 -104 11 -26 14 -159 18 -662 5 -741 -5 -1215 -28
-1395 -5 -43 -12 -145 -25 -360 -5 -91 -16 -210 -24 -265 -9 -55 -20 -158 -26
-230 -6 -71 -19 -184 -30 -250 -10 -66 -22 -149 -25 -185 -4 -36 -15 -110 -25
-165 -11 -55 -34 -176 -51 -270 -31 -176 -83 -434 -126 -635 -66 -313 -80
-374 -123 -525 -11 -38 -29 -108 -40 -155 -58 -246 -184 -673 -260 -885 -10
-27 -35 -102 -56 -165 -55 -168 -88 -264 -96 -275 -3 -6 -25 -60 -48 -120 -22
-61 -47 -123 -54 -140 -8 -16 -44 -106 -80 -200 -37 -93 -82 -204 -101 -245
-18 -41 -49 -113 -69 -160 -102 -250 -174 -406 -339 -735 -89 -177 -236 -456
-257 -485 -10 -14 -43 -72 -75 -130 -32 -58 -98 -172 -147 -255 -50 -82 -106
-177 -126 -210 -71 -120 -394 -608 -510 -770 -43 -60 -122 -171 -176 -245 -53
-74 -119 -164 -146 -200 -27 -36 -57 -76 -67 -90 -9 -14 -29 -39 -43 -56 -14
-17 -68 -87 -120 -155 -52 -68 -108 -137 -125 -154 -16 -16 -48 -52 -70 -80
-82 -100 -148 -181 -187 -230 -182 -227 -740 -802 -1020 -1050 -18 -16 -103
-95 -188 -173 -85 -79 -171 -156 -190 -170 -19 -15 -89 -74 -155 -132 -161
-140 -326 -279 -402 -337 -299 -231 -548 -410 -938 -678 -41 -27 -116 -79
-167 -115 -51 -36 -147 -98 -213 -139 -66 -41 -136 -84 -155 -97 -40 -26 -120
-73 -230 -134 -105 -59 -254 -146 -325 -190 -33 -20 -78 -46 -100 -58 -22 -11
-80 -43 -130 -70 -90 -51 -548 -281 -679 -342 -38 -17 -112 -52 -165 -77 -132
-61 -476 -200 -647 -261 -78 -28 -161 -60 -185 -71 -24 -11 -69 -29 -99 -40
-30 -11 -104 -39 -165 -62 -60 -23 -137 -49 -171 -59 -33 -10 -105 -34 -160
-53 -54 -19 -151 -49 -214 -67 -224 -61 -286 -78 -390 -105 -58 -15 -132 -35
-165 -45 -200 -60 -728 -176 -1050 -230 -38 -6 -119 -20 -180 -30 -60 -11
-166 -26 -235 -35 -69 -9 -131 -18 -137 -20 -23 -8 -634 -74 -833 -90 -421
-34 -1217 -45 -1685 -25 -367 16 -910 70 -1170 115 -77 14 -158 27 -180 30
-22 3 -65 10 -95 15 -30 5 -102 16 -160 25 -58 9 -123 20 -145 26 -22 5 -83
18 -135 28 -142 27 -236 48 -435 97 -99 24 -223 53 -275 64 -52 12 -122 30
-155 41 -33 11 -96 28 -140 39 -44 11 -127 34 -185 51 -58 17 -130 37 -160 45
-30 9 -86 26 -125 39 -38 13 -164 53 -280 90 -115 36 -232 75 -260 86 -27 11
-126 46 -220 78 -93 32 -206 73 -250 91 -44 18 -100 41 -125 51 -126 51 -252
105 -310 131 -36 17 -103 45 -150 63 -47 19 -122 54 -168 79 -45 25 -89 46
-96 46 -8 0 -40 14 -71 30 -31 17 -83 37 -114 46 -31 9 -67 26 -81 38 -26 23
-109 65 -269 135 -51 23 -122 62 -159 87 -36 26 -81 51 -100 56 -19 5 -57 25
-85 44 -27 19 -53 34 -59 34 -5 0 -35 17 -66 38 -31 21 -119 74 -195 118 -195
112 -232 134 -322 193 -44 29 -92 55 -107 58 -14 3 -39 18 -54 34 -15 16 -33
29 -40 29 -7 0 -21 10 -31 23 -28 35 -216 156 -254 164 -33 6 -68 31 -60 42 6
8 -79 67 -110 76 -27 9 -71 41 -132 99 -23 21 -54 46 -68 55 -14 9 -43 29 -65
44 -86 62 -200 138 -225 149 -14 6 -30 21 -35 32 -11 25 -56 26 -80 2 -20 -21
-18 -21 -52 15 -23 25 -39 32 -69 33 -33 1 -40 4 -39 21 1 12 -5 19 -12 17 -8
-1 -11 2 -8 7 4 5 2 12 -3 15 -13 9 -6 42 9 38 15 -3 65 -62 65 -76 0 -13 33
-15 57 -4 35 16 6 49 -85 99 -16 8 -34 23 -39 32 -5 10 -28 27 -51 38 -23 12
-49 27 -57 35 -8 7 -27 15 -42 18 -33 6 -32 -14 5 -52 15 -16 29 -41 30 -57 2
-24 -3 -30 -26 -36 -16 -4 -38 -4 -50 1 -12 5 -18 9 -13 9 5 1 2 8 -5 17 -7 9
-14 23 -16 32 -1 9 -7 18 -12 20 -6 2 -11 10 -11 18 0 9 5 12 12 8 6 -4 9 -3
6 2 -8 13 10 56 21 50 10 -6 9 50 -1 59 -6 6 -32 13 -55 14 -7 1 -13 7 -13 15
0 7 -7 20 -16 27 -9 7 -20 24 -25 36 -11 29 -32 26 -39 -7 -5 -22 -10 -25 -47
-22 -51 4 -63 -11 -22 -28 27 -11 32 -10 54 10 25 24 54 22 56 -5 3 -28 4 -33
11 -41 12 -11 10 -36 -2 -29 -6 3 -10 -1 -10 -10 0 -9 -4 -13 -10 -10 -6 3
-10 -2 -10 -11 0 -14 3 -15 12 -6 7 7 18 12 26 12 11 0 12 -3 3 -14 -8 -10 -9
-16 -1 -21 6 -3 8 -11 4 -16 -3 -5 -9 -7 -14 -4 -12 7 -18 -53 -6 -65 5 -5 6
-10 1 -10 -4 0 0 -9 10 -20 10 -11 14 -20 10 -20 -5 0 2 -11 15 -25 12 -13 27
-22 31 -19 5 3 9 -2 9 -11 0 -9 4 -14 9 -11 4 3 19 -6 32 -21 13 -14 18 -23
12 -19 -7 4 -13 3 -13 -2 0 -14 28 -23 36 -11 3 6 10 7 17 1 7 -6 38 -9 70 -8
31 2 57 -1 57 -6 0 -8 -16 -12 -34 -9 -5 1 -3 -6 5 -15 8 -10 9 -15 3 -11 -7
4 -14 -2 -17 -14 -4 -14 -10 -18 -19 -13 -7 5 -17 9 -23 9 -5 0 -15 11 -22 25
-7 14 -13 21 -13 16 0 -5 -6 -3 -14 3 -8 7 -17 8 -20 3 -3 -5 -19 -8 -36 -7
-37 3 -59 -19 -43 -45 9 -13 9 -20 1 -28 -9 -9 -6 -10 10 -7 12 2 24 -1 28 -6
3 -6 11 -6 17 -1 16 11 77 9 78 -3 0 -5 10 -21 22 -35 12 -13 15 -19 6 -12
-12 9 -19 9 -29 -1 -12 -10 -12 -9 -2 5 9 11 10 18 2 23 -6 3 -7 12 -4 18 4 7
3 8 -2 4 -5 -5 -9 -21 -10 -36 0 -15 -3 -32 -7 -38 -4 -6 -3 -14 3 -18 6 -4 8
-10 5 -15 -3 -5 -1 -11 4 -15 6 -3 8 4 6 15 -3 14 0 18 8 13 7 -4 6 0 -2 10
-12 15 -11 17 12 15 25 -2 33 -33 9 -33 -7 0 -12 -4 -12 -10 0 -5 5 -10 12
-10 6 0 12 -7 13 -16 2 -9 -3 -16 -11 -16 -7 0 -12 5 -11 11 1 5 -6 10 -15 11
-10 0 -17 -4 -15 -10 1 -5 7 -8 12 -7 6 2 7 0 3 -4 -4 -4 -3 -13 3 -21 10 -11
15 -11 28 -1 14 11 14 11 4 -3 -7 -9 -10 -19 -6 -23 11 -10 12 -37 2 -30 -5 3
-9 -3 -10 -13 0 -15 -2 -15 -7 -3 -8 17 -34 21 -29 5 1 -5 7 -9 12 -7 6 2 4
-2 -2 -9 -7 -7 -13 -24 -13 -37 0 -21 2 -23 15 -12 12 10 13 16 3 29 -11 14
-11 14 3 4 12 -10 18 -10 29 0 12 10 12 9 2 -4 -9 -12 -9 -18 0 -27 9 -9 6
-11 -10 -7 -20 4 -37 -9 -37 -29 0 -5 -8 -10 -17 -12 -10 -1 -16 1 -15 4 1 4
-1 8 -5 10 -17 5 -28 2 -28 -9 0 -5 5 -7 12 -3 7 4 8 3 4 -5 -6 -8 -12 -9 -20
-2 -7 6 -16 7 -20 3 -4 -4 -6 -2 -4 3 1 6 -1 10 -7 10 -5 0 -9 -4 -7 -8 1 -5
-2 -6 -7 -3 -5 4 -13 2 -16 -4 -5 -8 -12 -7 -23 2 -10 8 -13 9 -9 1 5 -8 -2
-11 -21 -11 -16 1 -35 -3 -43 -7 -11 -7 -11 -5 1 11 8 10 0 6 -18 -10 -17 -16
-29 -34 -25 -39 3 -6 2 -8 -3 -4 -5 3 -14 -6 -21 -19 -6 -13 -7 -22 -2 -18 5
3 9 -2 9 -11 0 -9 -4 -13 -10 -10 -6 3 -10 -1 -10 -9 0 -9 -5 -15 -11 -14 -6
2 -13 -2 -16 -8 -2 -6 18 -25 44 -42 26 -17 57 -40 68 -52 12 -11 26 -20 32
-20 7 0 16 -6 20 -13 4 -6 26 -24 48 -39 22 -15 64 -48 94 -72 57 -47 91 -63
91 -42 0 18 32 44 50 41 8 -2 28 -6 43 -9 28 -5 89 -64 81 -77 -2 -4 0 -10 5
-13 5 -4 12 -2 16 3 3 6 17 1 31 -12 14 -12 29 -22 32 -22 4 -1 17 -4 28 -8
19 -7 20 -11 11 -31 -16 -34 -50 -27 -99 21 -24 23 -55 45 -70 48 -16 4 -28
11 -28 15 0 12 -63 21 -73 11 -5 -5 37 -41 103 -87 231 -163 247 -172 247
-136 0 45 4 52 27 52 14 0 27 -4 31 -10 8 -12 -5 -61 -15 -55 -8 5 -36 -23
-29 -29 8 -6 108 -72 229 -152 69 -46 139 -92 155 -104 17 -12 98 -62 180
-112 83 -50 166 -101 185 -113 41 -26 371 -214 480 -273 41 -22 109 -59 150
-81 169 -92 664 -336 850 -419 810 -362 1492 -607 2281 -821 905 -245 1753
-394 2679 -470 518 -43 613 -46 1265 -46 654 1 739 4 1275 51 1762 152 3488
620 5106 1383 1160 546 2268 1253 3259 2080 376 314 653 568 1051 966 497 497
848 892 1265 1425 854 1092 1586 2343 2128 3638 82 195 93 224 176 437 234
598 502 1461 635 2045 11 47 29 126 40 175 36 157 111 516 129 625 25 140 87
511 106 630 8 52 22 156 30 230 9 74 18 142 20 150 2 8 11 89 20 180 8 91 19
194 25 230 5 36 16 178 25 315 8 138 17 270 20 295 26 229 31 1203 9 1630 -16
323 -45 733 -59 845 -5 35 -25 173 -29 200 -3 21 -18 35 -29 28 -7 -4 -5 2 3
12 9 11 10 16 3 11 -9 -5 -13 1 -14 21 l-1 28 -8 -30 c-5 -21 -8 -24 -10 -10
l-1 20 -8 -20 c-5 -11 -5 -25 0 -31 5 -6 5 -14 1 -18 -4 -4 -7 -12 -7 -17 0
-21 -20 -7 -23 16 -2 16 -8 23 -15 18 -8 -5 -8 -2 0 9 7 8 9 18 5 22 -4 4 -8
16 -8 27 -2 32 -3 33 -25 13 -22 -20 -66 -27 -76 -11 -4 6 -1 7 8 2 12 -8 12
-6 0 8 -7 9 -14 17 -15 17 -1 0 -16 -15 -34 -33z m26 -20 c-1 -20 -7 -34 -15
-34 -7 0 -11 3 -8 5 3 3 -1 12 -8 21 -11 14 -10 14 6 2 15 -12 17 -11 17 13 0
14 2 26 5 26 3 0 5 -15 3 -33z m116 -5 c3 -5 -1 -9 -9 -9 -8 0 -12 4 -9 9 3 4
7 8 9 8 2 0 6 -4 9 -8z m-606 -677 c-2 -24 -13 -25 -13 -2 -1 7 -7 11 -15 9
-11 -3 -11 0 -1 12 17 21 31 11 29 -19z m-23539 -12858 c8 -10 7 -14 -2 -14
-8 0 -14 6 -14 14 0 7 1 13 2 13 2 0 8 -6 14 -13z m371 -330 c0 -33 -10 -40
-32 -21 -14 13 -15 20 -7 31 18 21 39 15 39 -10z m-256 -18 c-9 -10 -21 -16
-26 -13 -5 3 -2 14 8 25 9 10 21 16 26 13 5 -3 2 -14 -8 -25z m-64 -17 c0 -12
-3 -12 -15 -2 -8 7 -15 13 -15 15 0 1 7 2 15 2 8 0 15 -7 15 -15z m727 -155
c17 -18 10 -37 -13 -37 -19 0 -24 5 -24 24 0 23 19 30 37 13z m-58 -101 c8
-10 8 -16 -2 -24 -15 -13 -37 2 -37 25 0 17 25 17 39 -1z m171 -2 c0 -2 -7 -4
-15 -4 -8 0 -15 4 -15 10 0 5 7 7 15 4 8 -4 15 -8 15 -10z m360 -260 c0 -8 -5
-12 -10 -9 -6 4 -8 11 -5 16 9 14 15 11 15 -7z m-747 -295 c-5 -4 -20 -10 -35
-13 -21 -3 -28 -1 -28 11 0 13 -2 14 -17 2 -16 -12 -17 -12 -6 2 7 9 10 19 7
22 -4 4 3 5 14 2 12 -2 24 1 28 6 4 6 14 3 25 -7 11 -10 16 -21 12 -25z"/>
<path d="M31320 18165 c0 -6 7 -12 15 -12 8 0 15 6 15 12 0 6 -7 12 -15 12 -8
0 -15 -6 -15 -12z"/>
<path d="M30702 17903 c4 -18 21 -18 24 0 1 8 -5 14 -13 14 -7 0 -13 -7 -11
-14z"/>
<path d="M5446 5281 c-3 -5 1 -14 9 -21 13 -10 15 -9 15 9 0 21 -14 28 -24 12z"/>
<path d="M6793 4973 c-7 -15 -13 -44 -13 -64 0 -35 2 -37 27 -33 48 9 51 20
23 92 -15 39 -21 40 -37 5z"/>
<path d="M5760 4951 c0 -16 6 -21 26 -21 33 0 30 33 -4 38 -17 3 -22 -2 -22
-17z"/>
<path d="M6940 4947 c0 -17 35 -50 49 -46 16 6 -11 53 -32 57 -10 2 -17 -3
-17 -11z"/>
<path d="M6760 4844 c0 -8 -4 -13 -9 -10 -17 11 -28 -18 -16 -42 10 -18 15
-21 21 -10 9 14 16 78 9 78 -3 0 -5 -7 -5 -16z"/>
<path d="M6900 4815 c0 -32 24 -50 40 -30 7 8 16 13 19 10 4 -2 8 2 8 10 0 8
-3 13 -5 10 -3 -3 -12 1 -20 7 -24 21 -42 18 -42 -7z"/>
<path d="M6797 4718 c-3 -10 0 -18 6 -19 7 0 20 -2 29 -4 24 -4 42 19 25 33
-19 16 -55 10 -60 -10z"/>
<path d="M6931 4667 c-8 -11 -6 -18 10 -32 25 -24 49 -28 49 -9 0 9 4 13 9 10
11 -7 9 13 -2 32 -11 16 -52 15 -66 -1z"/>
<path d="M6165 4560 c-4 -6 -11 -7 -17 -4 -7 4 -8 2 -4 -5 6 -8 12 -9 20 -2 7
6 17 7 21 3 5 -4 5 -1 1 6 -9 15 -13 15 -21 2z"/>
<path d="M6306 4462 c-3 -6 1 -15 8 -21 8 -7 17 -8 20 -3 3 6 -1 15 -8 21 -8
7 -17 8 -20 3z"/>
<path d="M7160 4343 c0 -13 -2 -14 -17 -2 -16 12 -16 12 -6 -1 6 -8 12 -19 12
-24 1 -12 29 -17 36 -6 3 4 15 6 27 2 22 -5 22 -5 2 15 -27 28 -54 36 -54 16z"/>
<path d="M6460 4227 c0 -20 20 -35 40 -30 27 7 14 43 -16 43 -13 0 -24 -6 -24
-13z"/>
<path d="M6533 4174 c0 -24 103 -95 142 -98 6 -1 10 -6 10 -13 0 -7 8 -22 18
-34 17 -20 19 -20 37 -4 18 16 17 45 -1 45 -20 0 -25 2 -40 16 -9 8 -19 11
-24 7 -4 -5 -6 -3 -2 2 9 17 -22 71 -49 84 -38 17 -91 14 -91 -5z"/>
<path d="M7357 4033 c-8 -14 9 -46 26 -49 27 -4 28 11 3 35 -13 13 -26 19 -29
14z"/>
<path d="M6736 3937 c2 -7 20 -20 40 -29 27 -12 32 -13 23 -2 -8 10 -8 14 0
14 6 0 11 5 11 11 0 8 -4 8 -14 0 -10 -9 -16 -8 -26 4 -15 18 -41 20 -34 2z"/>
<path d="M6845 3880 c-13 -20 8 -51 45 -70 22 -11 44 -29 50 -40 15 -27 45
-42 74 -34 14 3 25 9 24 13 -2 13 17 50 27 49 6 0 15 9 21 21 6 11 15 18 20
13 5 -4 0 3 -10 15 -15 18 -22 20 -33 12 -7 -6 -13 -8 -13 -4 0 5 -9 0 -20
-10 -11 -10 -20 -14 -20 -9 0 5 -5 2 -10 -6 -7 -11 -10 -11 -10 -2 0 7 -4 10
-10 7 -5 -3 -10 1 -10 10 0 9 -4 13 -10 10 -5 -3 -10 2 -10 12 0 15 -2 15 -9
4 -8 -12 -12 -12 -25 -2 -9 8 -16 11 -16 7 0 -3 -11 -1 -25 4 -15 6 -26 6 -30
0z m202 -45 c0 -8 -4 -12 -9 -9 -5 3 -6 10 -3 15 9 13 12 11 12 -6z m30 -17
c-3 -8 -6 -5 -6 6 -1 11 2 17 5 13 3 -3 4 -12 1 -19z"/>
</g>
</svg>
